<svg width="24" height="24" viewBox="0 0 24 24" fill="none" xmlns="http://www.w3.org/2000/svg">
<g clip-path="url(#clip0_2_143)">
<path d="M7.0239 8.9989H3.26953V20.9999H7.0239V8.9989Z" fill="white"/>
<path d="M20.5512 14.5656V21H16.7968V15.0009C16.7968 13.4234 16.6074 12.1456 14.7698 12.1456C12.9322 12.1456 12.7456 13.4262 12.7456 15.0009V21H8.99121V8.99903H12.7456V10.7151C13.311 9.46832 14.3796 8.67957 16.3558 8.67957C16.5084 8.67957 16.6554 8.68522 16.7968 8.6937C20.1865 8.89442 20.5512 11.4445 20.5512 14.5656Z" fill="white"/>
<path d="M7.3 5.14859C7.3 3.96121 6.33596 3 5.14859 3C3.96121 3 3 3.96121 3 5.14859C3 6.33596 3.96121 7.29717 5.14859 7.29717C6.33596 7.29717 7.29717 6.33596 7.29717 5.14859H7.3Z" fill="white"/>
</g>
<defs>
<clipPath id="clip0_2_143">
<rect width="24" height="24" fill="white"/>
</clipPath>
</defs>
</svg>
