<svg width="24" height="24" viewBox="0 0 24 24" fill="none" xmlns="http://www.w3.org/2000/svg">
<path d="M12 8.8335C10.2883 8.8335 8.83337 10.2885 8.83337 12.0002C8.83337 13.7119 10.2883 15.1668 12 15.1668C13.7118 15.1668 15.1667 13.7119 15.1667 12.0002C15.1667 10.2885 13.7118 8.8335 12 8.8335Z" fill="white"/>
<path d="M16.0591 2.5H8.02727C4.91818 2.5 2.5 4.91818 2.5 7.94091V15.9727C2.5 19.0818 4.91818 21.5 8.02727 21.5H16.0591C19.0818 21.5 21.5 19.0818 21.5 15.9727V7.94091C21.5 4.91818 19.0818 2.5 16.0591 2.5ZM12 17.0091C9.23636 17.0091 7.07727 14.7636 7.07727 12.0864C7.07727 9.40909 9.23636 7.07727 12 7.07727C14.7636 7.07727 16.9227 9.32273 16.9227 12C16.9227 14.6773 14.7636 17.0091 12 17.0091ZM17.0955 8.11364C16.4909 8.11364 15.9727 7.59545 15.9727 6.99091C15.9727 6.38636 16.4909 5.86818 17.0955 5.86818C17.7 5.86818 18.2182 6.38636 18.2182 6.99091C18.2182 7.59545 17.7 8.11364 17.0955 8.11364Z" fill="white"/>
</svg>
