<?xml version="1.0" encoding="utf-8"?>
<!-- Generator: Adobe Illustrator 23.1.0, SVG Export Plug-In . SVG Version: 6.00 Build 0)  -->
<svg version="1.1" id="Layer_1" xmlns="http://www.w3.org/2000/svg" xmlns:xlink="http://www.w3.org/1999/xlink" x="0px" y="0px"
	 viewBox="0 0 24 24" style="enable-background:new 0 0 24 24;" xml:space="preserve">
<style type="text/css">
	.st0{clip-path:url(#SVGID_2_);}
	.st1{fill:#062C5E;}
</style>
<g>
	<defs>
		<rect id="SVGID_1_" width="24" height="24"/>
	</defs>
	<clipPath id="SVGID_2_">
		<use xlink:href="#SVGID_1_"  style="overflow:visible;"/>
	</clipPath>
	<g class="st0">
		<path class="st1" d="M7,9H3.3v12H7V9z"/>
		<path class="st1" d="M20.6,14.6V21h-3.8v-6c0-1.6-0.2-2.9-2-2.9s-2,1.3-2,2.9v6H9V9h3.8v1.7c0.6-1.2,1.6-2,3.6-2
			c0.2,0,0.3,0,0.4,0C20.2,8.9,20.6,11.4,20.6,14.6z"/>
		<path class="st1" d="M7.3,5.1C7.3,4,6.3,3,5.1,3C4,3,3,4,3,5.1c0,1.2,1,2.1,2.1,2.1C6.3,7.3,7.3,6.3,7.3,5.1L7.3,5.1z"/>
	</g>
</g>
</svg>
