<?xml version="1.0" encoding="utf-8"?>
<!-- Generator: Adobe Illustrator 23.1.0, SVG Export Plug-In . SVG Version: 6.00 Build 0)  -->
<svg version="1.1" id="Layer_1" xmlns="http://www.w3.org/2000/svg" xmlns:xlink="http://www.w3.org/1999/xlink" x="0px" y="0px"
	 viewBox="0 0 24 24" style="enable-background:new 0 0 24 24;" xml:space="preserve">
<style type="text/css">
	.st0{fill-rule:evenodd;clip-rule:evenodd;fill:#062C5E;}
</style>
<path class="st0" d="M20.6,4.7c0.9,0.3,1.7,1,1.9,2C23,8.4,23,12,23,12s0,3.6-0.5,5.3c-0.3,1-1,1.7-1.9,2c-1.7,0.5-8.6,0.5-8.6,0.5
	s-6.9,0-8.6-0.5c-0.9-0.3-1.7-1-1.9-2C1,15.6,1,12,1,12s0-3.6,0.5-5.3c0.3-1,1-1.7,1.9-2C5.1,4.3,12,4.3,12,4.3S18.9,4.3,20.6,4.7z
	 M9.8,8.7v6.5l5.8-3.3L9.8,8.7z"/>
</svg>
